<svg xmlns="http://www.w3.org/2000/svg" width="24" height="24" viewBox="0 0 24 24" class="svg--current-color">
<path fill-rule="evenodd" clip-rule="evenodd" d="M1.5 12.0593C1.5 17.1244 5.29167 21.3358 10.25 22.1894L10.3114 22.1415C10.2907 22.1376 10.2701 22.1336 10.2494 22.1296V14.902H7.62438V12.0564H10.2494V9.78002C10.2494 7.21904 11.941 5.79628 14.3327 5.79628C15.0911 5.79628 15.9077 5.9101 16.6661 6.02392V8.64181H15.3244C14.0411 8.64181 13.7494 9.26782 13.7494 10.0646V12.0564H16.5494L16.0827 14.902H13.7494V22.1296C13.729 22.1336 13.7087 22.1375 13.6884 22.1413L13.75 22.1894C18.7083 21.3358 22.5 17.1244 22.5 12.0593C22.5 6.42519 17.775 1.81543 12 1.81543C6.225 1.81543 1.5 6.42519 1.5 12.0593Z" fill="black"></path>
</svg>