<?xml version="1.0" encoding="utf-8"?>
<!-- Generator: Adobe Illustrator 22.1.0, SVG Export Plug-In . SVG Version: 6.00 Build 0)  -->
<svg version="1.1" id="Warstwa_1" xmlns="http://www.w3.org/2000/svg" xmlns:xlink="http://www.w3.org/1999/xlink" x="0px" y="0px"
	 viewBox="0 0 792.5 66.7" style="enable-background:new 0 0 792.5 66.7;" xml:space="preserve">
<style type="text/css">
	.st0{fill:#E0EBFF;}
	.st1{fill:#B3CEFF;}
	.st2{fill:#D8D8D8;}
	.st3{fill:none;stroke:#FFFFFF;stroke-width:5;stroke-miterlimit:10;}
	.st4{fill:#FFFFFF;}
</style>
<title>mapa na listing_3</title>
<g id="Warstwa_2_1_">
	<g id="Warstwa_1-2">
		<rect y="2.2" class="st0" width="792" height="64"/>
		<polygon class="st1" points="662.5,36.6 643.9,58.2 653,66.2 709.4,66.2 725,48.7 		"/>
		<path class="st1" d="M433.2,13.6L434,2.2h-47.5c1.2,7.2,2.1,14.7,2.1,14.7L433.2,13.6z"/>
		<polygon class="st2" points="523.2,2.2 442.9,2.2 434,58 468.5,66.2 473.8,66.2 479.1,39.8 502.8,43.1 499.1,66.2 531.9,66.2
			540.8,11.6 		"/>
		<polygon class="st2" points="313.5,39.5 259.3,33.5 244.9,66.2 294.1,66.2 295.9,63.5 		"/>
		<path class="st3" d="M115.9,2.2C79.8,23.7,8.7,56.9,8.1,66.2"/>
		<path class="st3" d="M81.7,2.2c-0.1,0.5-0.3,0.9-0.4,1.4c-7.2,23.3-18.7,40.7-14,62.5"/>
		<path class="st3" d="M55,37.2c0,0-28-23.8-39-35.1"/>
		<path class="st3" d="M562.3,66.2c0.5-8,21.3-25.2,19.5-31.8c-0.2-0.7-0.5-1.4-1-2c-3.4-4.5-26.5-16.8-26.5-30.3"/>
		<line class="st3" x1="635.9" y1="34.3" x2="634.9" y2="2.2"/>
		<path class="st4" d="M354.8,44.5c-1.5,1.1-20.2,13.9-32.1,21.7h7.8c12.1-8,25.5-16.6,31.1-20C373.9,38.7,356.6,43.1,354.8,44.5z"
			/>
		<path class="st4" d="M356.4,2.2h-7.6c-10.9,11.6-22.7,24.3-27.4,28.9c-11,11-21.8,25.1-28.9,35.1h7.5c7.2-9.4,15.5-19.3,15.5-19.3
			L356.4,2.2z"/>
		<polygon class="st4" points="255.4,2.2 251.6,2.2 249,9.8 224.1,66.2 227.7,66.2 252.7,10 		"/>
		<path class="st3" d="M204,2.2c-15,17-6.7,15.7-48.7,39.6c-41.4,23.5-45.3,19.4-45.6,24.6"/>
		<path class="st3" d="M452.1,66.2c-1.1-8-178.4-47.1-195-49.1c-20.8-2.6-33-7-49,0s-45.5,20.2-45.5,20.2"/>
		<path class="st3" d="M792,57.9L698.6,40l-35.9-6.9L584,35"/>
		<line class="st3" x1="592.2" y1="47.5" x2="578.6" y2="44.7"/>
		<path class="st3" d="M652.6,66.6c0-3.2-9-8.6-9-8.6l-51.4-10.6"/>
		<path class="st4" d="M387.7,31.1c0.3-7.7,0.4-19.6-0.8-28.9h-4.8c0.2,1,0.4,2.1,0.5,3.2c2,13.8-0.2,32.6,0,35.4
			c0.5,7.1,2.4,16.2,5.1,25.4h5c-0.6-1.7-0.9-2.7-0.9-2.9C388.7,52.8,387.4,41.9,387.7,31.1z"/>
		<polygon class="st2" points="743.5,2.2 739.3,11.6 792,34.7 792,2.2 		"/>
		<path class="st3" d="M720.7,2c-20,21-17.2,39-17.2,39"/>
	</g>
</g>
</svg>