<svg width="18" height="25" viewBox="0 0 18 25" fill="none" xmlns="http://www.w3.org/2000/svg">
<path fill-rule="evenodd" clip-rule="evenodd" d="M0 7.91875C0 3.54479 4.27725 0 9 0C13.7239 0 18 3.54479 18 7.91875C18 11.8652 14.8215 16.5021 10.4549 22.8725C9.98297 23.561 9.49717 24.2697 9 25C8.50283 24.2697 8.01703 23.561 7.54511 22.8725C3.17847 16.5021 0 11.8652 0 7.91875ZM5.625 8.33334C5.625 10.0594 7.13588 11.4583 9 11.4583C10.8641 11.4583 12.375 10.0594 12.375 8.33334C12.375 6.6073 10.8641 5.20834 9 5.20834C7.13588 5.20834 5.625 6.6073 5.625 8.33334Z" fill="#0158B5"/>
</svg>
